<?xml version="1.0" encoding="utf-8" standalone="no"?>
<!DOCTYPE svg PUBLIC "-//W3C//DTD SVG 1.1//EN"
  "http://www.w3.org/Graphics/SVG/1.1/DTD/svg11.dtd">
<svg xmlns:xlink="http://www.w3.org/1999/xlink" width="644.42875pt" height="402.689438pt" viewBox="0 0 644.42875 402.689438" xmlns="http://www.w3.org/2000/svg" version="1.1">
 <metadata>
  <rdf:RDF xmlns:dc="http://purl.org/dc/elements/1.1/" xmlns:cc="http://creativecommons.org/ns#" xmlns:rdf="http://www.w3.org/1999/02/22-rdf-syntax-ns#">
   <cc:Work>
    <dc:type rdf:resource="http://purl.org/dc/dcmitype/StillImage"/>
    <dc:date>2024-03-20T00:19:32.104025</dc:date>
    <dc:format>image/svg+xml</dc:format>
    <dc:creator>
     <cc:Agent>
      <dc:title>Matplotlib v3.5.1, https://matplotlib.org/</dc:title>
     </cc:Agent>
    </dc:creator>
   </cc:Work>
  </rdf:RDF>
 </metadata>
 <defs>
  <style type="text/css">*{stroke-linejoin: round; stroke-linecap: butt}</style>
 </defs>
 <g id="figure_1">
  <g id="patch_1">
   <path d="M 0 402.689438 
L 644.42875 402.689438 
L 644.42875 0 
L 0 0 
z
" style="fill: #ffffff"/>
  </g>
  <g id="axes_1">
   <g id="patch_2">
    <path d="M 79.22875 333.921 
L 637.22875 333.921 
L 637.22875 56.721 
L 79.22875 56.721 
z
" style="fill: #ffffff"/>
   </g>
   <g id="matplotlib.axis_1">
    <g id="xtick_1">
     <g id="line2d_1">
      <path d="M 104.592386 333.921 
L 104.592386 56.721 
" clip-path="url(#pd370e65b6e)" style="fill: none; stroke: #cccccc; stroke-width: 2; stroke-linecap: round"/>
     </g>
     <g id="text_1">
      <!-- 0.0 -->
      <g style="fill: #262626" transform="translate(89.302386 365.168188)scale(0.22 -0.22)">
       <defs>
        <path id="ArialMT-30" d="M 266 2259 
Q 266 3072 433 3567 
Q 600 4063 929 4331 
Q 1259 4600 1759 4600 
Q 2128 4600 2406 4451 
Q 2684 4303 2865 4023 
Q 3047 3744 3150 3342 
Q 3253 2941 3253 2259 
Q 3253 1453 3087 958 
Q 2922 463 2592 192 
Q 2263 -78 1759 -78 
Q 1097 -78 719 397 
Q 266 969 266 2259 
z
M 844 2259 
Q 844 1131 1108 757 
Q 1372 384 1759 384 
Q 2147 384 2411 759 
Q 2675 1134 2675 2259 
Q 2675 3391 2411 3762 
Q 2147 4134 1753 4134 
Q 1366 4134 1134 3806 
Q 844 3388 844 2259 
z
" transform="scale(0.015625)"/>
        <path id="ArialMT-2e" d="M 581 0 
L 581 641 
L 1222 641 
L 1222 0 
L 581 0 
z
" transform="scale(0.015625)"/>
       </defs>
       <use xlink:href="#ArialMT-30"/>
       <use xlink:href="#ArialMT-2e" x="55.615234"/>
       <use xlink:href="#ArialMT-30" x="83.398438"/>
      </g>
     </g>
    </g>
    <g id="xtick_2">
     <g id="line2d_2">
      <path d="M 206.046932 333.921 
L 206.046932 56.721 
" clip-path="url(#pd370e65b6e)" style="fill: none; stroke: #cccccc; stroke-width: 2; stroke-linecap: round"/>
     </g>
     <g id="text_2">
      <!-- 0.2 -->
      <g style="fill: #262626" transform="translate(190.756932 365.168188)scale(0.22 -0.22)">
       <defs>
        <path id="ArialMT-32" d="M 3222 541 
L 3222 0 
L 194 0 
Q 188 203 259 391 
Q 375 700 629 1000 
Q 884 1300 1366 1694 
Q 2113 2306 2375 2664 
Q 2638 3022 2638 3341 
Q 2638 3675 2398 3904 
Q 2159 4134 1775 4134 
Q 1369 4134 1125 3890 
Q 881 3647 878 3216 
L 300 3275 
Q 359 3922 746 4261 
Q 1134 4600 1788 4600 
Q 2447 4600 2831 4234 
Q 3216 3869 3216 3328 
Q 3216 3053 3103 2787 
Q 2991 2522 2730 2228 
Q 2469 1934 1863 1422 
Q 1356 997 1212 845 
Q 1069 694 975 541 
L 3222 541 
z
" transform="scale(0.015625)"/>
       </defs>
       <use xlink:href="#ArialMT-30"/>
       <use xlink:href="#ArialMT-2e" x="55.615234"/>
       <use xlink:href="#ArialMT-32" x="83.398438"/>
      </g>
     </g>
    </g>
    <g id="xtick_3">
     <g id="line2d_3">
      <path d="M 307.501477 333.921 
L 307.501477 56.721 
" clip-path="url(#pd370e65b6e)" style="fill: none; stroke: #cccccc; stroke-width: 2; stroke-linecap: round"/>
     </g>
     <g id="text_3">
      <!-- 0.4 -->
      <g style="fill: #262626" transform="translate(292.211477 365.168188)scale(0.22 -0.22)">
       <defs>
        <path id="ArialMT-34" d="M 2069 0 
L 2069 1097 
L 81 1097 
L 81 1613 
L 2172 4581 
L 2631 4581 
L 2631 1613 
L 3250 1613 
L 3250 1097 
L 2631 1097 
L 2631 0 
L 2069 0 
z
M 2069 1613 
L 2069 3678 
L 634 1613 
L 2069 1613 
z
" transform="scale(0.015625)"/>
       </defs>
       <use xlink:href="#ArialMT-30"/>
       <use xlink:href="#ArialMT-2e" x="55.615234"/>
       <use xlink:href="#ArialMT-34" x="83.398438"/>
      </g>
     </g>
    </g>
    <g id="xtick_4">
     <g id="line2d_4">
      <path d="M 408.956023 333.921 
L 408.956023 56.721 
" clip-path="url(#pd370e65b6e)" style="fill: none; stroke: #cccccc; stroke-width: 2; stroke-linecap: round"/>
     </g>
     <g id="text_4">
      <!-- 0.6 -->
      <g style="fill: #262626" transform="translate(393.666023 365.168188)scale(0.22 -0.22)">
       <defs>
        <path id="ArialMT-36" d="M 3184 3459 
L 2625 3416 
Q 2550 3747 2413 3897 
Q 2184 4138 1850 4138 
Q 1581 4138 1378 3988 
Q 1113 3794 959 3422 
Q 806 3050 800 2363 
Q 1003 2672 1297 2822 
Q 1591 2972 1913 2972 
Q 2475 2972 2870 2558 
Q 3266 2144 3266 1488 
Q 3266 1056 3080 686 
Q 2894 316 2569 119 
Q 2244 -78 1831 -78 
Q 1128 -78 684 439 
Q 241 956 241 2144 
Q 241 3472 731 4075 
Q 1159 4600 1884 4600 
Q 2425 4600 2770 4297 
Q 3116 3994 3184 3459 
z
M 888 1484 
Q 888 1194 1011 928 
Q 1134 663 1356 523 
Q 1578 384 1822 384 
Q 2178 384 2434 671 
Q 2691 959 2691 1453 
Q 2691 1928 2437 2201 
Q 2184 2475 1800 2475 
Q 1419 2475 1153 2201 
Q 888 1928 888 1484 
z
" transform="scale(0.015625)"/>
       </defs>
       <use xlink:href="#ArialMT-30"/>
       <use xlink:href="#ArialMT-2e" x="55.615234"/>
       <use xlink:href="#ArialMT-36" x="83.398438"/>
      </g>
     </g>
    </g>
    <g id="xtick_5">
     <g id="line2d_5">
      <path d="M 510.410568 333.921 
L 510.410568 56.721 
" clip-path="url(#pd370e65b6e)" style="fill: none; stroke: #cccccc; stroke-width: 2; stroke-linecap: round"/>
     </g>
     <g id="text_5">
      <!-- 0.8 -->
      <g style="fill: #262626" transform="translate(495.120568 365.168188)scale(0.22 -0.22)">
       <defs>
        <path id="ArialMT-38" d="M 1131 2484 
Q 781 2613 612 2850 
Q 444 3088 444 3419 
Q 444 3919 803 4259 
Q 1163 4600 1759 4600 
Q 2359 4600 2725 4251 
Q 3091 3903 3091 3403 
Q 3091 3084 2923 2848 
Q 2756 2613 2416 2484 
Q 2838 2347 3058 2040 
Q 3278 1734 3278 1309 
Q 3278 722 2862 322 
Q 2447 -78 1769 -78 
Q 1091 -78 675 323 
Q 259 725 259 1325 
Q 259 1772 486 2073 
Q 713 2375 1131 2484 
z
M 1019 3438 
Q 1019 3113 1228 2906 
Q 1438 2700 1772 2700 
Q 2097 2700 2305 2904 
Q 2513 3109 2513 3406 
Q 2513 3716 2298 3927 
Q 2084 4138 1766 4138 
Q 1444 4138 1231 3931 
Q 1019 3725 1019 3438 
z
M 838 1322 
Q 838 1081 952 856 
Q 1066 631 1291 507 
Q 1516 384 1775 384 
Q 2178 384 2440 643 
Q 2703 903 2703 1303 
Q 2703 1709 2433 1975 
Q 2163 2241 1756 2241 
Q 1359 2241 1098 1978 
Q 838 1716 838 1322 
z
" transform="scale(0.015625)"/>
       </defs>
       <use xlink:href="#ArialMT-30"/>
       <use xlink:href="#ArialMT-2e" x="55.615234"/>
       <use xlink:href="#ArialMT-38" x="83.398438"/>
      </g>
     </g>
    </g>
    <g id="xtick_6">
     <g id="line2d_6">
      <path d="M 611.865114 333.921 
L 611.865114 56.721 
" clip-path="url(#pd370e65b6e)" style="fill: none; stroke: #cccccc; stroke-width: 2; stroke-linecap: round"/>
     </g>
     <g id="text_6">
      <!-- 1.0 -->
      <g style="fill: #262626" transform="translate(596.575114 365.168188)scale(0.22 -0.22)">
       <defs>
        <path id="ArialMT-31" d="M 2384 0 
L 1822 0 
L 1822 3584 
Q 1619 3391 1289 3197 
Q 959 3003 697 2906 
L 697 3450 
Q 1169 3672 1522 3987 
Q 1875 4303 2022 4600 
L 2384 4600 
L 2384 0 
z
" transform="scale(0.015625)"/>
       </defs>
       <use xlink:href="#ArialMT-31"/>
       <use xlink:href="#ArialMT-2e" x="55.615234"/>
       <use xlink:href="#ArialMT-30" x="83.398438"/>
      </g>
     </g>
    </g>
    <g id="text_7">
     <!-- False Positive Rate -->
     <g style="fill: #262626" transform="translate(254.85625 390.719438)scale(0.24 -0.24)">
      <defs>
       <path id="ArialMT-46" d="M 525 0 
L 525 4581 
L 3616 4581 
L 3616 4041 
L 1131 4041 
L 1131 2622 
L 3281 2622 
L 3281 2081 
L 1131 2081 
L 1131 0 
L 525 0 
z
" transform="scale(0.015625)"/>
       <path id="ArialMT-61" d="M 2588 409 
Q 2275 144 1986 34 
Q 1697 -75 1366 -75 
Q 819 -75 525 192 
Q 231 459 231 875 
Q 231 1119 342 1320 
Q 453 1522 633 1644 
Q 813 1766 1038 1828 
Q 1203 1872 1538 1913 
Q 2219 1994 2541 2106 
Q 2544 2222 2544 2253 
Q 2544 2597 2384 2738 
Q 2169 2928 1744 2928 
Q 1347 2928 1158 2789 
Q 969 2650 878 2297 
L 328 2372 
Q 403 2725 575 2942 
Q 747 3159 1072 3276 
Q 1397 3394 1825 3394 
Q 2250 3394 2515 3294 
Q 2781 3194 2906 3042 
Q 3031 2891 3081 2659 
Q 3109 2516 3109 2141 
L 3109 1391 
Q 3109 606 3145 398 
Q 3181 191 3288 0 
L 2700 0 
Q 2613 175 2588 409 
z
M 2541 1666 
Q 2234 1541 1622 1453 
Q 1275 1403 1131 1340 
Q 988 1278 909 1158 
Q 831 1038 831 891 
Q 831 666 1001 516 
Q 1172 366 1500 366 
Q 1825 366 2078 508 
Q 2331 650 2450 897 
Q 2541 1088 2541 1459 
L 2541 1666 
z
" transform="scale(0.015625)"/>
       <path id="ArialMT-6c" d="M 409 0 
L 409 4581 
L 972 4581 
L 972 0 
L 409 0 
z
" transform="scale(0.015625)"/>
       <path id="ArialMT-73" d="M 197 991 
L 753 1078 
Q 800 744 1014 566 
Q 1228 388 1613 388 
Q 2000 388 2187 545 
Q 2375 703 2375 916 
Q 2375 1106 2209 1216 
Q 2094 1291 1634 1406 
Q 1016 1563 777 1677 
Q 538 1791 414 1992 
Q 291 2194 291 2438 
Q 291 2659 392 2848 
Q 494 3038 669 3163 
Q 800 3259 1026 3326 
Q 1253 3394 1513 3394 
Q 1903 3394 2198 3281 
Q 2494 3169 2634 2976 
Q 2775 2784 2828 2463 
L 2278 2388 
Q 2241 2644 2061 2787 
Q 1881 2931 1553 2931 
Q 1166 2931 1000 2803 
Q 834 2675 834 2503 
Q 834 2394 903 2306 
Q 972 2216 1119 2156 
Q 1203 2125 1616 2013 
Q 2213 1853 2448 1751 
Q 2684 1650 2818 1456 
Q 2953 1263 2953 975 
Q 2953 694 2789 445 
Q 2625 197 2315 61 
Q 2006 -75 1616 -75 
Q 969 -75 630 194 
Q 291 463 197 991 
z
" transform="scale(0.015625)"/>
       <path id="ArialMT-65" d="M 2694 1069 
L 3275 997 
Q 3138 488 2766 206 
Q 2394 -75 1816 -75 
Q 1088 -75 661 373 
Q 234 822 234 1631 
Q 234 2469 665 2931 
Q 1097 3394 1784 3394 
Q 2450 3394 2872 2941 
Q 3294 2488 3294 1666 
Q 3294 1616 3291 1516 
L 816 1516 
Q 847 969 1125 678 
Q 1403 388 1819 388 
Q 2128 388 2347 550 
Q 2566 713 2694 1069 
z
M 847 1978 
L 2700 1978 
Q 2663 2397 2488 2606 
Q 2219 2931 1791 2931 
Q 1403 2931 1139 2672 
Q 875 2413 847 1978 
z
" transform="scale(0.015625)"/>
       <path id="ArialMT-20" transform="scale(0.015625)"/>
       <path id="ArialMT-50" d="M 494 0 
L 494 4581 
L 2222 4581 
Q 2678 4581 2919 4538 
Q 3256 4481 3484 4323 
Q 3713 4166 3852 3881 
Q 3991 3597 3991 3256 
Q 3991 2672 3619 2267 
Q 3247 1863 2275 1863 
L 1100 1863 
L 1100 0 
L 494 0 
z
M 1100 2403 
L 2284 2403 
Q 2872 2403 3119 2622 
Q 3366 2841 3366 3238 
Q 3366 3525 3220 3729 
Q 3075 3934 2838 4000 
Q 2684 4041 2272 4041 
L 1100 4041 
L 1100 2403 
z
" transform="scale(0.015625)"/>
       <path id="ArialMT-6f" d="M 213 1659 
Q 213 2581 725 3025 
Q 1153 3394 1769 3394 
Q 2453 3394 2887 2945 
Q 3322 2497 3322 1706 
Q 3322 1066 3130 698 
Q 2938 331 2570 128 
Q 2203 -75 1769 -75 
Q 1072 -75 642 372 
Q 213 819 213 1659 
z
M 791 1659 
Q 791 1022 1069 705 
Q 1347 388 1769 388 
Q 2188 388 2466 706 
Q 2744 1025 2744 1678 
Q 2744 2294 2464 2611 
Q 2184 2928 1769 2928 
Q 1347 2928 1069 2612 
Q 791 2297 791 1659 
z
" transform="scale(0.015625)"/>
       <path id="ArialMT-69" d="M 425 3934 
L 425 4581 
L 988 4581 
L 988 3934 
L 425 3934 
z
M 425 0 
L 425 3319 
L 988 3319 
L 988 0 
L 425 0 
z
" transform="scale(0.015625)"/>
       <path id="ArialMT-74" d="M 1650 503 
L 1731 6 
Q 1494 -44 1306 -44 
Q 1000 -44 831 53 
Q 663 150 594 308 
Q 525 466 525 972 
L 525 2881 
L 113 2881 
L 113 3319 
L 525 3319 
L 525 4141 
L 1084 4478 
L 1084 3319 
L 1650 3319 
L 1650 2881 
L 1084 2881 
L 1084 941 
Q 1084 700 1114 631 
Q 1144 563 1211 522 
Q 1278 481 1403 481 
Q 1497 481 1650 503 
z
" transform="scale(0.015625)"/>
       <path id="ArialMT-76" d="M 1344 0 
L 81 3319 
L 675 3319 
L 1388 1331 
Q 1503 1009 1600 663 
Q 1675 925 1809 1294 
L 2547 3319 
L 3125 3319 
L 1869 0 
L 1344 0 
z
" transform="scale(0.015625)"/>
       <path id="ArialMT-52" d="M 503 0 
L 503 4581 
L 2534 4581 
Q 3147 4581 3465 4457 
Q 3784 4334 3975 4021 
Q 4166 3709 4166 3331 
Q 4166 2844 3850 2509 
Q 3534 2175 2875 2084 
Q 3116 1969 3241 1856 
Q 3506 1613 3744 1247 
L 4541 0 
L 3778 0 
L 3172 953 
Q 2906 1366 2734 1584 
Q 2563 1803 2427 1890 
Q 2291 1978 2150 2013 
Q 2047 2034 1813 2034 
L 1109 2034 
L 1109 0 
L 503 0 
z
M 1109 2559 
L 2413 2559 
Q 2828 2559 3062 2645 
Q 3297 2731 3419 2920 
Q 3541 3109 3541 3331 
Q 3541 3656 3305 3865 
Q 3069 4075 2559 4075 
L 1109 4075 
L 1109 2559 
z
" transform="scale(0.015625)"/>
      </defs>
      <use xlink:href="#ArialMT-46"/>
      <use xlink:href="#ArialMT-61" x="61.083984"/>
      <use xlink:href="#ArialMT-6c" x="116.699219"/>
      <use xlink:href="#ArialMT-73" x="138.916016"/>
      <use xlink:href="#ArialMT-65" x="188.916016"/>
      <use xlink:href="#ArialMT-20" x="244.53125"/>
      <use xlink:href="#ArialMT-50" x="272.314453"/>
      <use xlink:href="#ArialMT-6f" x="339.013672"/>
      <use xlink:href="#ArialMT-73" x="394.628906"/>
      <use xlink:href="#ArialMT-69" x="444.628906"/>
      <use xlink:href="#ArialMT-74" x="466.845703"/>
      <use xlink:href="#ArialMT-69" x="494.628906"/>
      <use xlink:href="#ArialMT-76" x="516.845703"/>
      <use xlink:href="#ArialMT-65" x="566.845703"/>
      <use xlink:href="#ArialMT-20" x="622.460938"/>
      <use xlink:href="#ArialMT-52" x="650.244141"/>
      <use xlink:href="#ArialMT-61" x="722.460938"/>
      <use xlink:href="#ArialMT-74" x="778.076172"/>
      <use xlink:href="#ArialMT-65" x="805.859375"/>
     </g>
    </g>
   </g>
   <g id="matplotlib.axis_2">
    <g id="ytick_1">
     <g id="line2d_7">
      <path d="M 79.22875 321.321 
L 637.22875 321.321 
" clip-path="url(#pd370e65b6e)" style="fill: none; stroke: #cccccc; stroke-width: 2; stroke-linecap: round"/>
     </g>
     <g id="text_8">
      <!-- 0.0 -->
      <g style="fill: #262626" transform="translate(33.14875 329.194594)scale(0.22 -0.22)">
       <use xlink:href="#ArialMT-30"/>
       <use xlink:href="#ArialMT-2e" x="55.615234"/>
       <use xlink:href="#ArialMT-30" x="83.398438"/>
      </g>
     </g>
    </g>
    <g id="ytick_2">
     <g id="line2d_8">
      <path d="M 79.22875 270.921 
L 637.22875 270.921 
" clip-path="url(#pd370e65b6e)" style="fill: none; stroke: #cccccc; stroke-width: 2; stroke-linecap: round"/>
     </g>
     <g id="text_9">
      <!-- 0.2 -->
      <g style="fill: #262626" transform="translate(33.14875 278.794594)scale(0.22 -0.22)">
       <use xlink:href="#ArialMT-30"/>
       <use xlink:href="#ArialMT-2e" x="55.615234"/>
       <use xlink:href="#ArialMT-32" x="83.398438"/>
      </g>
     </g>
    </g>
    <g id="ytick_3">
     <g id="line2d_9">
      <path d="M 79.22875 220.521 
L 637.22875 220.521 
" clip-path="url(#pd370e65b6e)" style="fill: none; stroke: #cccccc; stroke-width: 2; stroke-linecap: round"/>
     </g>
     <g id="text_10">
      <!-- 0.4 -->
      <g style="fill: #262626" transform="translate(33.14875 228.394594)scale(0.22 -0.22)">
       <use xlink:href="#ArialMT-30"/>
       <use xlink:href="#ArialMT-2e" x="55.615234"/>
       <use xlink:href="#ArialMT-34" x="83.398438"/>
      </g>
     </g>
    </g>
    <g id="ytick_4">
     <g id="line2d_10">
      <path d="M 79.22875 170.121 
L 637.22875 170.121 
" clip-path="url(#pd370e65b6e)" style="fill: none; stroke: #cccccc; stroke-width: 2; stroke-linecap: round"/>
     </g>
     <g id="text_11">
      <!-- 0.6 -->
      <g style="fill: #262626" transform="translate(33.14875 177.994594)scale(0.22 -0.22)">
       <use xlink:href="#ArialMT-30"/>
       <use xlink:href="#ArialMT-2e" x="55.615234"/>
       <use xlink:href="#ArialMT-36" x="83.398438"/>
      </g>
     </g>
    </g>
    <g id="ytick_5">
     <g id="line2d_11">
      <path d="M 79.22875 119.721 
L 637.22875 119.721 
" clip-path="url(#pd370e65b6e)" style="fill: none; stroke: #cccccc; stroke-width: 2; stroke-linecap: round"/>
     </g>
     <g id="text_12">
      <!-- 0.8 -->
      <g style="fill: #262626" transform="translate(33.14875 127.594594)scale(0.22 -0.22)">
       <use xlink:href="#ArialMT-30"/>
       <use xlink:href="#ArialMT-2e" x="55.615234"/>
       <use xlink:href="#ArialMT-38" x="83.398438"/>
      </g>
     </g>
    </g>
    <g id="ytick_6">
     <g id="line2d_12">
      <path d="M 79.22875 69.321 
L 637.22875 69.321 
" clip-path="url(#pd370e65b6e)" style="fill: none; stroke: #cccccc; stroke-width: 2; stroke-linecap: round"/>
     </g>
     <g id="text_13">
      <!-- 1.0 -->
      <g style="fill: #262626" transform="translate(33.14875 77.194594)scale(0.22 -0.22)">
       <use xlink:href="#ArialMT-31"/>
       <use xlink:href="#ArialMT-2e" x="55.615234"/>
       <use xlink:href="#ArialMT-30" x="83.398438"/>
      </g>
     </g>
    </g>
    <g id="text_14">
     <!-- True Positive Rate -->
     <g style="fill: #262626" transform="translate(24.37875 293.572875)rotate(-90)scale(0.24 -0.24)">
      <defs>
       <path id="ArialMT-54" d="M 1659 0 
L 1659 4041 
L 150 4041 
L 150 4581 
L 3781 4581 
L 3781 4041 
L 2266 4041 
L 2266 0 
L 1659 0 
z
" transform="scale(0.015625)"/>
       <path id="ArialMT-72" d="M 416 0 
L 416 3319 
L 922 3319 
L 922 2816 
Q 1116 3169 1280 3281 
Q 1444 3394 1641 3394 
Q 1925 3394 2219 3213 
L 2025 2691 
Q 1819 2813 1613 2813 
Q 1428 2813 1281 2702 
Q 1134 2591 1072 2394 
Q 978 2094 978 1738 
L 978 0 
L 416 0 
z
" transform="scale(0.015625)"/>
       <path id="ArialMT-75" d="M 2597 0 
L 2597 488 
Q 2209 -75 1544 -75 
Q 1250 -75 995 37 
Q 741 150 617 320 
Q 494 491 444 738 
Q 409 903 409 1263 
L 409 3319 
L 972 3319 
L 972 1478 
Q 972 1038 1006 884 
Q 1059 663 1231 536 
Q 1403 409 1656 409 
Q 1909 409 2131 539 
Q 2353 669 2445 892 
Q 2538 1116 2538 1541 
L 2538 3319 
L 3100 3319 
L 3100 0 
L 2597 0 
z
" transform="scale(0.015625)"/>
      </defs>
      <use xlink:href="#ArialMT-54"/>
      <use xlink:href="#ArialMT-72" x="57.333984"/>
      <use xlink:href="#ArialMT-75" x="90.634766"/>
      <use xlink:href="#ArialMT-65" x="146.25"/>
      <use xlink:href="#ArialMT-20" x="201.865234"/>
      <use xlink:href="#ArialMT-50" x="229.648438"/>
      <use xlink:href="#ArialMT-6f" x="296.347656"/>
      <use xlink:href="#ArialMT-73" x="351.962891"/>
      <use xlink:href="#ArialMT-69" x="401.962891"/>
      <use xlink:href="#ArialMT-74" x="424.179688"/>
      <use xlink:href="#ArialMT-69" x="451.962891"/>
      <use xlink:href="#ArialMT-76" x="474.179688"/>
      <use xlink:href="#ArialMT-65" x="524.179688"/>
      <use xlink:href="#ArialMT-20" x="579.794922"/>
      <use xlink:href="#ArialMT-52" x="607.578125"/>
      <use xlink:href="#ArialMT-61" x="679.794922"/>
      <use xlink:href="#ArialMT-74" x="735.410156"/>
      <use xlink:href="#ArialMT-65" x="763.193359"/>
     </g>
    </g>
   </g>
   <g id="line2d_13">
    <path d="M 104.592386 321.321 
L 104.700626 314.799153 
L 104.704117 314.799153 
L 104.808865 310.71953 
L 104.822832 310.636272 
L 104.931071 307.188019 
L 104.941546 307.083947 
L 105.049785 304.294817 
L 105.06026 304.232374 
L 105.168499 302.227253 
L 105.185957 302.150933 
L 105.294197 299.715648 
L 105.297688 299.715648 
L 105.405928 297.315053 
L 105.409419 297.315053 
L 105.517659 294.921396 
L 105.524642 294.838139 
L 105.632881 292.361225 
L 105.636373 292.361225 
L 105.744612 290.307537 
L 105.755087 290.265908 
L 105.863327 287.900004 
L 105.877293 287.844499 
L 105.985532 285.34677 
L 105.992516 285.325956 
L 106.100755 283.723247 
L 106.107738 283.653865 
L 106.215978 280.788416 
L 106.222961 280.719034 
L 106.3312 278.87349 
L 106.359133 278.76248 
L 106.463881 276.139865 
L 106.470864 276.139865 
L 106.579103 273.801714 
L 106.589578 273.787837 
L 106.697817 272.157376 
L 106.708292 272.108809 
L 106.816532 269.749843 
L 106.827006 269.659647 
L 106.935246 267.904299 
L 106.942229 267.807165 
L 107.050468 266.287713 
L 107.064435 266.197518 
L 107.172674 264.324221 
L 107.183149 264.303407 
L 107.183149 264.282592 
L 107.291388 262.353791 
L 107.301863 262.256657 
L 107.410103 260.882906 
L 107.420577 260.799649 
L 107.420577 260.771896 
L 107.528817 259.162249 
L 107.539292 259.065115 
L 107.647531 257.282014 
L 107.658006 257.171004 
L 107.766245 256.164975 
L 107.77672 256.060903 
L 107.881468 254.971615 
L 107.891943 254.957739 
L 107.891943 254.902234 
L 107.99669 253.285649 
L 108.014148 253.223205 
L 108.122388 251.780073 
L 108.129371 251.724568 
L 108.23761 250.37857 
L 108.248085 250.295312 
L 108.356325 249.185211 
L 108.384257 249.074201 
L 108.492497 247.964099 
L 108.509955 247.853089 
L 108.618194 246.534843 
L 108.65311 246.423833 
L 108.761349 245.174969 
L 108.771824 245.063959 
L 108.880064 243.461249 
L 108.897522 243.350239 
L 109.005761 242.240138 
L 109.009253 242.240138 
L 109.117492 240.921892 
L 109.138442 240.838634 
L 109.246681 239.929739 
L 109.264139 239.867296 
L 109.372378 238.889019 
L 109.389836 238.778008 
L 109.494584 237.848298 
L 109.512042 237.799731 
L 109.620282 236.863083 
L 109.630756 236.80064 
L 109.738996 235.697476 
L 109.745979 235.600343 
L 109.854218 234.476365 
L 109.861202 234.386169 
L 109.969441 233.428706 
L 109.986899 233.317696 
L 110.095138 232.068832 
L 110.116088 231.96476 
L 110.217344 230.715896 
L 110.231311 230.695081 
L 110.33955 229.446217 
L 110.343042 229.446217 
L 110.451281 228.003085 
L 110.468739 227.912889 
L 110.576978 226.94155 
L 110.590945 226.83054 
L 110.699184 225.581676 
L 110.709659 225.470665 
L 110.817898 224.617275 
L 110.842339 224.527079 
L 110.950579 223.895709 
L 110.968037 223.861018 
L 111.076276 222.868865 
L 111.107701 222.764793 
L 111.21594 221.724073 
L 111.229906 221.613062 
L 111.338146 220.613971 
L 111.352112 220.509899 
L 111.45686 219.64957 
L 111.481301 219.483055 
L 111.589541 218.657417 
L 111.613982 218.594974 
L 111.722221 217.734645 
L 111.739679 217.623635 
L 111.847918 216.825749 
L 111.854902 216.742492 
L 111.959649 215.944606 
L 111.998057 215.847472 
L 112.106296 214.945515 
L 112.130738 214.876133 
L 112.238977 214.175382 
L 112.249452 214.078248 
L 112.357691 213.315053 
L 112.389116 213.204043 
L 112.497355 212.378405 
L 112.521796 212.281271 
L 112.630036 211.642963 
L 112.64051 211.566643 
L 112.745258 210.643871 
L 112.769699 210.532861 
L 112.877939 209.887614 
L 112.912855 209.79048 
L 113.021094 208.867709 
L 113.042044 208.798327 
L 113.150283 208.083699 
L 113.160758 208.069823 
L 113.265506 207.126237 
L 113.282964 207.036041 
L 113.387711 206.467114 
L 113.429611 206.363042 
L 113.530867 205.717795 
L 113.565783 205.641476 
L 113.674022 204.975415 
L 113.677514 204.975415 
L 113.785753 204.156715 
L 113.803211 204.052643 
L 113.900976 203.386582 
L 113.935892 203.324139 
L 114.040639 202.637263 
L 114.054606 202.547068 
L 114.162845 201.950388 
L 114.17332 201.908759 
L 114.281559 201.04843 
L 114.302509 200.944358 
L 114.410748 200.333803 
L 114.438681 200.222792 
L 114.546921 199.522041 
L 114.560887 199.411031 
L 114.665635 198.89067 
L 114.707534 198.793537 
L 114.815773 198.127476 
L 114.82974 198.051156 
L 114.937979 197.232456 
L 114.96242 197.135322 
L 115.067168 196.6219 
L 115.105576 196.51089 
L 115.213815 196.10154 
L 115.245239 196.018283 
L 115.353479 195.414665 
L 115.398869 195.310593 
L 115.503617 194.727789 
L 115.521075 194.637594 
L 115.629315 194.144986 
L 115.660739 194.033976 
L 115.768978 193.548307 
L 115.800403 193.451173 
L 115.908642 192.986318 
L 115.936575 192.875307 
L 116.044814 192.327195 
L 116.069255 192.223123 
L 116.177495 191.591752 
L 116.212411 191.480742 
L 116.317159 190.863248 
L 116.338108 190.786929 
L 116.446348 190.100053 
L 116.47428 189.989043 
L 116.58252 189.357673 
L 116.620927 189.260539 
L 116.725675 188.740179 
L 116.753608 188.629169 
L 116.847881 188.164314 
L 116.903746 188.060242 
L 117.001511 187.699459 
L 117.022461 187.609263 
L 117.1307 187.186037 
L 117.172599 187.075027 
L 117.280839 186.665677 
L 117.291313 186.554666 
L 117.396061 185.951049 
L 117.410028 185.846977 
L 117.518267 185.451503 
L 117.553183 185.340493 
L 117.661422 184.806256 
L 117.689355 184.716061 
L 117.797594 184.098567 
L 117.822036 184.015309 
L 117.926783 183.45332 
L 117.954716 183.349248 
L 118.059464 182.828888 
L 118.09438 182.724816 
L 118.202619 182.246085 
L 118.230552 182.155889 
L 118.338792 181.822858 
L 118.377199 181.739601 
L 118.485438 181.080478 
L 118.506388 180.969468 
L 118.611136 180.379726 
L 118.639069 180.289531 
L 118.747308 179.880181 
L 118.792699 179.776109 
L 118.900938 179.387573 
L 118.942837 179.297377 
L 119.03711 178.950471 
L 119.040602 178.950471 
L 119.120909 178.83946 
L 119.229148 178.353791 
L 119.271047 178.270533 
L 119.375795 177.805678 
L 119.43166 177.694668 
L 119.536408 177.215937 
L 119.592274 177.132679 
L 119.700513 176.660886 
L 119.749395 176.549876 
L 119.854143 176.12665 
L 119.896042 176.029516 
L 120.004282 175.64098 
L 120.014757 175.571599 
L 120.119504 175.169187 
L 120.182353 175.065115 
L 120.287101 174.669641 
L 120.318525 174.572507 
L 120.423273 174.156219 
L 120.475647 174.045209 
L 120.583886 173.524849 
L 120.608328 173.413839 
L 120.713075 172.976736 
L 120.758466 172.872664 
L 120.866706 172.484129 
L 120.915588 172.428624 
L 120.915588 172.393933 
L 121.023827 171.970707 
L 121.065726 171.880511 
L 121.173966 171.568295 
L 121.219356 171.457285 
L 121.327596 171.082626 
L 121.383461 170.971615 
L 121.488209 170.624709 
L 121.526617 170.513698 
L 121.610415 170.250049 
L 121.694213 170.152915 
L 121.802453 169.882328 
L 121.84086 169.778256 
L 121.9491 169.46604 
L 122.018931 169.368906 
L 122.127171 169.188515 
L 122.158595 169.098319 
L 122.266835 168.75835 
L 122.319209 168.64734 
L 122.427448 168.258805 
L 122.47633 168.147794 
L 122.58457 167.960465 
L 122.62996 167.849455 
L 122.7382 167.467857 
L 122.780099 167.412352 
L 122.881355 167.08626 
L 122.916271 166.989126 
L 123.017527 166.67691 
L 123.083868 166.5659 
L 123.185124 166.336941 
L 123.216548 166.239807 
L 123.324788 165.920653 
L 123.349229 165.809643 
L 123.457468 165.386417 
L 123.478418 165.275407 
L 123.583166 164.942376 
L 123.632048 164.866057 
L 123.632048 164.838304 
L 123.740287 164.567717 
L 123.796153 164.456707 
L 123.900901 164.068171 
L 123.963749 163.957161 
L 124.065006 163.644945 
L 124.099921 163.547811 
L 124.208161 163.18009 
L 124.274501 163.082956 
L 124.382741 162.701358 
L 124.435114 162.590348 
L 124.543354 162.25038 
L 124.616677 162.146308 
L 124.717934 161.924287 
L 124.777291 161.813277 
L 124.882038 161.403927 
L 124.930921 161.292917 
L 125.028685 160.876629 
L 125.074076 160.765619 
L 125.182316 160.495032 
L 125.269605 160.39096 
L 125.377845 160.168939 
L 125.447677 160.064867 
L 125.555916 159.704084 
L 125.622256 159.620827 
L 125.730496 159.38493 
L 125.768903 159.27392 
L 125.87016 159.079652 
L 125.939991 158.968642 
L 126.044739 158.684178 
L 126.132029 158.573168 
L 126.236777 158.351148 
L 126.296134 158.260952 
L 126.404373 158.018117 
L 126.453256 157.93486 
L 126.558004 157.490819 
L 126.63831 157.379809 
L 126.743058 157.171665 
L 126.833839 157.060655 
L 126.935096 156.838634 
L 126.98747 156.734562 
L 127.092217 156.401532 
L 127.158558 156.290522 
L 127.266797 156.082378 
L 127.312188 155.978306 
L 127.406461 155.707718 
L 127.483276 155.603646 
L 127.584532 155.36775 
L 127.647381 155.25674 
L 127.752129 154.993091 
L 127.814977 154.88208 
L 127.923217 154.583741 
L 127.99654 154.47273 
L 128.101288 154.340906 
L 128.10478 154.340906 
L 128.74025 152.876959 
L 128.848489 152.571681 
L 128.900863 152.474548 
L 128.998628 152.16927 
L 129.085918 152.065198 
L 129.180191 151.79461 
L 129.183682 151.79461 
L 129.250022 151.690538 
L 129.358262 151.440765 
L 129.403653 151.343632 
L 129.504909 151.135487 
L 129.606165 151.024477 
L 129.710913 150.781643 
L 129.74932 150.691447 
L 129.74932 150.670632 
L 130.451131 149.511964 
L 130.527946 149.400954 
L 130.629202 149.241377 
L 130.695542 149.130366 
L 130.80029 148.873655 
L 130.852664 148.762645 
L 130.957412 148.526749 
L 131.013277 148.415739 
L 131.121517 148.172904 
L 131.184365 148.061894 
L 131.292605 147.895378 
L 131.365928 147.784368 
L 131.463693 147.652544 
L 131.519558 147.569286 
L 131.519558 147.541534 
L 131.627798 147.312575 
L 131.718579 147.201565 
L 131.819836 146.986483 
L 131.879193 146.889349 
L 131.98394 146.702019 
L 132.074722 146.604885 
L 132.182961 146.452246 
L 132.242318 146.341236 
L 132.347066 146.133092 
L 132.39944 146.022082 
L 132.504188 145.855567 
L 132.66131 145.751495 
L 132.769549 145.591918 
L 132.835889 145.480907 
L 132.944129 145.314392 
L 133.066335 145.203382 
L 133.171082 145.071558 
L 133.254881 144.960547 
L 133.36312 144.849537 
L 133.415494 144.738527 
L 133.520242 144.572012 
L 133.607532 144.461002 
L 133.708788 144.35693 
L 133.851943 144.245919 
L 133.960183 144.072466 
L 134.01954 143.961456 
L 134.113813 143.850446 
L 134.197611 143.746374 
L 134.291884 143.600673 
L 134.39314 143.489663 
L 134.50138 143.295395 
L 134.585178 143.184385 
L 134.693417 142.983179 
L 134.759758 142.899921 
L 134.864505 142.559953 
L 134.96227 142.448943 
L 135.067018 142.303242 
L 135.185732 142.219984 
L 135.29048 142.060407 
L 135.342854 141.956335 
L 135.451093 141.769005 
L 135.545366 141.657995 
L 135.643131 141.519232 
L 135.793269 141.408222 
L 135.894526 141.26946 
L 136.016731 141.172326 
L 136.124971 141.061316 
L 136.205277 140.950305 
L 136.303042 140.839295 
L 136.379857 140.735223 
L 136.488097 140.617275 
L 136.589353 140.506265 
L 136.697592 140.402193 
L 136.80234 140.298121 
L 136.903596 140.034472 
L 136.994378 139.9304 
L 137.095634 139.784699 
L 137.252756 139.687565 
L 137.360995 139.583493 
L 137.441302 139.486359 
L 137.54605 139.305967 
L 137.647306 139.201895 
L 137.752054 139.056195 
L 137.835852 138.945184 
L 137.944091 138.709288 
L 138.059314 138.598278 
L 138.167553 138.459515 
L 138.205961 138.348505 
L 138.293251 138.21668 
L 138.377049 138.112608 
L 138.471322 137.959969 
L 138.698276 137.848959 
L 138.806515 137.682444 
L 138.872855 137.571434 
L 138.977603 137.453485 
L 139.127742 137.342475 
L 139.228998 137.210651 
L 139.330254 137.09964 
L 139.438493 136.926187 
L 139.560699 136.815177 
L 139.665447 136.662538 
L 139.766703 136.551528 
L 139.874943 136.391951 
L 140.004132 136.287879 
L 140.098405 136.05892 
L 140.22061 135.954848 
L 140.32885 135.823024 
L 140.531362 135.712013 
L 140.622144 135.656508 
L 140.730383 135.545498 
L 140.831639 135.399797 
L 140.957337 135.288787 
L 141.058593 135.198591 
L 141.18429 135.094519 
L 141.29253 134.893314 
L 141.383311 134.789242 
L 141.491551 134.560283 
L 141.617248 134.456211 
L 141.725487 134.317448 
L 141.84071 134.206438 
L 141.945458 134.123181 
L 142.099088 134.01217 
L 142.207327 133.949727 
L 142.280651 133.845655 
L 142.378415 133.783212 
L 142.38889 133.783212 
L 142.479672 133.672202 
L 142.580928 133.519563 
L 142.587911 133.519563 
L 142.818356 133.304481 
L 142.937071 133.19347 
L 143.04531 133.089398 
L 143.11165 132.978388 
L 143.513183 132.409461 
L 143.61444 132.298451 
L 143.712204 132.215193 
L 143.907734 132.111121 
L 144.00899 131.986235 
L 144.131196 131.875225 
L 144.232452 131.736462 
L 144.347674 131.639328 
L 144.452422 131.528318 
L 144.455914 131.528318 
L 144.588594 131.417308 
L 144.675884 131.320174 
L 144.696834 131.320174 
L 144.826023 131.209164 
L 144.930771 131.105092 
L 145.10535 130.994082 
L 145.199623 130.910824 
L 145.335796 130.799814 
L 145.405627 130.730433 
L 145.437052 130.730433 
L 145.538308 130.640237 
L 145.639564 130.536165 
L 145.775736 130.425155 
L 145.883976 130.321083 
L 146.121404 130.217011 
L 146.226152 130.099062 
L 146.320425 130.001928 
L 146.421681 129.849289 
L 146.65911 129.738279 
L 146.760366 129.703589 
L 146.833689 129.592578 
L 146.938437 129.467692 
L 147.088576 129.356682 
L 147.193323 129.217919 
L 147.385361 129.106909 
L 147.490109 129.044466 
L 147.598348 128.933456 
L 147.685638 128.815507 
L 147.881167 128.704497 
L 147.982424 128.593487 
L 148.104629 128.489415 
L 148.202394 128.385343 
L 148.314125 128.295147 
L 148.314125 128.274333 
L 148.39094 128.204951 
L 148.572503 128.093941 
L 148.680742 127.962117 
L 148.816915 127.851107 
L 148.925154 127.753973 
L 149.04736 127.649901 
L 149.148616 127.566643 
L 149.298755 127.462571 
L 149.396519 127.351561 
L 149.522217 127.240551 
L 149.626964 127.171169 
L 149.756153 127.060159 
L 149.85741 126.976902 
L 149.972632 126.865891 
L 150.080872 126.775696 
L 150.286876 126.664685 
L 150.377657 126.595304 
L 150.485897 126.49817 
L 150.587153 126.38716 
L 150.695392 126.27615 
L 150.803632 126.130449 
L 150.964245 126.026377 
L 151.065501 125.963934 
L 151.243572 125.852924 
L 151.351812 125.728037 
L 151.494967 125.617027 
L 151.571782 125.492141 
L 151.767311 125.388069 
L 151.865076 125.277058 
L 152.015215 125.166048 
L 152.123454 125.0481 
L 152.381832 124.93709 
L 152.577361 124.784451 
L 152.783365 124.673441 
L 152.888113 124.583245 
L 153.059201 124.479173 
L 153.132525 124.395915 
L 153.34202 124.284905 
L 153.443277 124.222462 
L 153.446768 124.222462 
L 153.701654 124.111452 
L 153.799419 124.055947 
L 153.942574 123.944937 
L 154.043831 123.847803 
L 154.302209 123.736793 
L 154.410448 123.660473 
L 154.536145 123.549463 
L 154.644385 123.452329 
L 154.815473 123.341319 
L 154.909746 123.271937 
L 155.105275 123.160927 
L 155.189073 123.140113 
L 155.210023 123.140113 
L 155.304296 123.036041 
L 155.412535 122.931969 
L 155.632506 122.827897 
L 155.632506 122.820959 
L 155.828035 122.654443 
L 156.023564 122.543433 
L 156.131804 122.446299 
L 156.316858 122.335289 
L 156.40764 122.265908 
L 156.596186 122.154898 
L 156.679984 122.064702 
L 156.872022 121.96063 
L 156.97677 121.919001 
L 157.287521 121.807991 
L 157.392269 121.731672 
L 157.587798 121.634538 
L 157.661122 121.579033 
L 157.692546 121.579033 
L 157.950924 121.468022 
L 158.059164 121.405579 
L 158.195336 121.294569 
L 158.300084 121.225188 
L 158.53402 121.114178 
L 158.64226 121.037858 
L 158.904129 120.933786 
L 158.904129 120.926848 
L 159.012369 120.822776 
L 159.141558 120.711766 
L 159.221864 120.635446 
L 159.434852 120.531374 
L 159.532616 120.420364 
L 159.770045 120.309354 
L 159.871301 120.246911 
L 160.031914 120.1359 
L 160.115712 120.115086 
L 160.360124 120.004076 
L 160.46138 119.948571 
L 160.698809 119.837561 
L 160.793082 119.761241 
L 161.058443 119.650231 
L 161.156207 119.573912 
L 161.264447 119.46984 
L 161.355228 119.400458 
L 161.529808 119.289448 
L 161.627573 119.213129 
L 161.833577 119.102118 
L 161.938324 119.018861 
L 162.109413 118.907851 
L 162.16877 118.893974 
L 162.451589 118.782964 
L 162.559828 118.692768 
L 162.727425 118.595635 
L 162.825189 118.470748 
L 163.003261 118.359738 
L 163.104517 118.331985 
L 163.355912 118.220975 
L 163.453676 118.137718 
L 163.544458 118.033646 
L 163.617781 117.985079 
L 163.642222 117.985079 
L 163.81331 117.874068 
L 163.904092 117.811625 
L 164.183419 117.700615 
L 164.291659 117.624296 
L 164.532579 117.513285 
L 164.633835 117.45778 
L 164.920146 117.34677 
L 165.01791 117.256574 
L 165.227406 117.145564 
L 165.335645 117.055369 
L 165.541649 116.944358 
L 165.590532 116.916606 
L 165.845418 116.805596 
L 165.939691 116.736214 
L 166.061897 116.625204 
L 166.163153 116.562761 
L 166.170136 116.562761 
L 166.372649 116.451751 
L 166.480888 116.347679 
L 166.763707 116.236669 
L 166.861472 116.097906 
L 167.130325 115.986896 
L 167.238564 115.938329 
L 167.472501 115.827319 
L 167.58074 115.750999 
L 167.898475 115.639989 
L 168.006715 115.535917 
L 168.177803 115.438783 
L 168.286042 115.362464 
L 168.519979 115.251453 
L 168.624727 115.168196 
L 168.799306 115.057186 
L 168.904054 114.994742 
L 169.050701 114.883732 
L 169.155449 114.807413 
L 169.403352 114.696403 
L 169.497625 114.633959 
L 169.710612 114.522949 
L 169.797902 114.474382 
L 170.16452 114.363372 
L 170.272759 114.328682 
L 170.447339 114.217671 
L 170.555578 114.099723 
L 170.772057 113.988713 
L 170.86633 113.898517 
L 171.19454 113.787507 
L 171.302779 113.732002 
L 171.637972 113.62793 
L 171.732245 113.565487 
L 171.945233 113.454477 
L 172.04998 113.398971 
L 172.360732 113.287961 
L 172.46548 113.232456 
L 172.776232 113.121446 
L 172.877488 113.038188 
L 173.272038 112.934116 
L 173.338379 112.885549 
L 173.523433 112.774539 
L 173.628181 112.712096 
L 173.813235 112.601086 
L 173.921475 112.517828 
L 174.274126 112.406818 
L 174.333483 112.351313 
L 174.364907 112.351313 
L 174.595352 112.240303 
L 174.682642 112.191736 
L 174.822306 112.087664 
L 174.927054 112.032159 
L 175.087667 111.921149 
L 175.150516 111.851767 
L 175.157499 111.851767 
L 175.660288 111.740757 
L 175.765036 111.685252 
L 175.978024 111.574242 
L 176.068805 111.511799 
L 176.445897 111.400789 
L 176.533187 111.366098 
L 176.774107 111.255088 
L 176.871872 111.164892 
L 177.137233 111.053882 
L 177.234997 110.977562 
L 177.241981 110.977562 
L 177.594631 110.866552 
L 177.692396 110.783295 
L 177.859993 110.686161 
L 177.968232 110.602903 
L 178.251051 110.491893 
L 178.359291 110.443326 
L 178.491971 110.332316 
L 178.600211 110.249058 
L 178.924929 110.144986 
L 179.022693 110.05479 
L 179.389311 109.94378 
L 179.462634 109.929904 
L 179.73847 109.818894 
L 179.801319 109.791141 
L 180.164445 109.680131 
L 180.325058 109.548307 
L 180.503129 109.451173 
L 180.503129 109.437296 
L 180.590419 109.354039 
L 181.033851 109.256905 
L 181.033851 109.243029 
L 181.128125 109.208338 
L 181.417927 109.097328 
L 181.526166 109.01407 
L 181.697254 108.90306 
L 181.802002 108.847555 
L 182.042922 108.750421 
L 182.151162 108.653287 
L 182.36764 108.542277 
L 182.437472 108.521463 
L 182.845989 108.410452 
L 182.954228 108.348009 
L 183.107858 108.264752 
L 183.561765 108.16068 
L 183.670005 108.077422 
L 183.96679 107.97335 
L 184.040114 107.910907 
L 184.214694 107.799897 
L 184.295 107.716639 
L 184.672092 107.605629 
L 184.769857 107.557062 
L 184.968878 107.45299 
L 185.031726 107.404423 
L 185.349462 107.293413 
L 185.415802 107.251784 
L 185.447226 107.251784 
L 185.76147 107.147712 
L 185.855743 107.113021 
L 186.138562 107.008949 
L 186.218868 106.918753 
L 186.505179 106.807743 
L 186.599452 106.752238 
L 186.794981 106.641228 
L 186.903221 106.599599 
L 187.241905 106.488589 
L 187.329195 106.440022 
L 187.702796 106.329012 
L 187.786594 106.245754 
L 187.80056 106.245754 
L 187.929749 106.134744 
L 188.020531 106.106992 
L 188.306842 105.995981 
L 188.411589 105.9266 
L 188.778207 105.81559 
L 188.879463 105.753147 
L 188.882955 105.753147 
L 189.260047 105.642137 
L 189.35432 105.614384 
L 189.693004 105.503374 
L 189.794261 105.420116 
L 189.947891 105.309106 
L 190.052639 105.239725 
L 190.345932 105.128715 
L 190.443697 105.080148 
L 190.45068 105.080148 
L 190.684617 104.969137 
L 190.789365 104.934447 
L 191.183915 104.823437 
L 191.267713 104.781808 
L 191.494667 104.670798 
L 191.630839 104.573664 
L 191.899692 104.462654 
L 191.997456 104.421025 
L 192.297733 104.310015 
L 192.388515 104.275324 
L 192.63991 104.164314 
L 192.713233 104.129623 
L 192.723708 104.129623 
L 192.996052 104.018613 
L 193.07985 103.99086 
L 193.27538 103.87985 
L 193.376636 103.796593 
L 193.694371 103.685582 
L 193.771186 103.616201 
L 193.973698 103.505191 
L 194.067971 103.442748 
L 194.466013 103.331738 
L 194.567269 103.297047 
L 195.024668 103.192975 
L 195.024668 103.186037 
L 195.523966 102.984831 
L 195.984857 102.873821 
L 196.086113 102.783625 
L 196.533037 102.672615 
L 196.641276 102.547728 
L 196.969486 102.436718 
L 197.126608 102.353461 
L 197.364036 102.24245 
L 197.430376 102.20776 
L 197.468784 102.20776 
L 197.828418 102.09675 
L 197.929674 102.048183 
L 198.11822 101.937172 
L 198.209002 101.888606 
L 198.477855 101.805348 
L 198.477855 101.79841 
L 198.572128 101.694338 
L 198.760674 101.597204 
L 198.86193 101.534761 
L 199.109833 101.437627 
L 199.186648 101.382122 
L 199.588181 101.27805 
L 199.696421 101.229483 
L 200.059547 101.118473 
L 200.167786 101.056029 
L 200.506471 100.951957 
L 200.520437 100.90339 
L 200.572811 100.90339 
L 200.967361 100.799318 
L 201.051159 100.75769 
L 201.410793 100.646679 
L 201.508558 100.598112 
L 201.679646 100.49404 
L 201.728528 100.452412 
L 202.007856 100.341401 
L 202.116095 100.278958 
L 202.517629 100.167948 
L 202.625868 100.119381 
L 202.971536 100.008371 
L 202.971536 100.001433 
L 203.362594 99.890423 
L 203.463851 99.855732 
L 203.914266 99.744722 
L 203.984098 99.689217 
L 204.263426 99.578207 
L 204.3158 99.56433 
L 204.368173 99.56433 
L 204.919845 99.45332 
L 204.989677 99.418629 
L 205.164257 99.307619 
L 205.269005 99.293743 
L 205.785761 99.182733 
L 205.890508 99.148042 
L 206.3095 99.037032 
L 206.410756 98.939898 
L 206.651676 98.828888 
L 206.752932 98.780321 
L 207.123041 98.669311 
L 207.217314 98.620744 
L 207.468709 98.509734 
L 207.576948 98.475043 
L 207.90865 98.364033 
L 208.002923 98.329342 
L 208.603477 98.22527 
L 208.6768 98.169765 
L 209.137691 98.058755 
L 209.242439 98.017126 
L 209.528749 97.913054 
L 209.616039 97.843673 
L 209.891875 97.732663 
L 209.996623 97.670219 
L 210.380698 97.559209 
L 210.454022 97.510642 
L 210.474971 97.510642 
L 210.914912 97.399632 
L 211.009185 97.378818 
L 211.023151 97.378818 
L 211.382786 97.267808 
L 211.41421 97.253931 
L 211.459601 97.253931 
L 211.850659 97.142921 
L 211.937949 97.066602 
L 212.189344 96.955592 
L 212.2906 96.893148 
L 212.294092 96.893148 
L 212.545486 96.782138 
L 212.580402 96.754386 
L 213.072717 96.643375 
L 213.132074 96.615623 
L 213.439334 96.504613 
L 213.544082 96.469922 
L 213.704696 96.358912 
L 213.805952 96.310345 
L 214.13067 96.206273 
L 214.221451 96.081387 
L 214.584577 95.970376 
L 214.692817 95.873243 
L 214.996585 95.762232 
L 215.090858 95.713665 
L 215.352728 95.602655 
L 215.356219 95.581841 
L 215.897417 95.470831 
L 215.988198 95.415326 
L 216.578277 95.304315 
L 216.683025 95.255748 
L 216.899504 95.144738 
L 216.976319 95.096171 
L 216.990285 95.096171 
L 217.339445 94.985161 
L 217.430226 94.894965 
L 217.444193 94.894965 
L 217.828268 94.790893 
L 217.919049 94.756203 
L 218.324074 94.652131 
L 218.414856 94.582749 
L 218.652284 94.471739 
L 218.757032 94.39542 
L 218.983986 94.28441 
L 219.08175 94.242781 
L 219.319179 94.138709 
L 219.427418 94.055451 
L 219.881325 93.944441 
L 219.926716 93.923627 
L 220.258417 93.812616 
L 220.356182 93.750173 
L 220.820564 93.639163 
L 220.824055 93.625287 
L 220.858971 93.625287 
L 221.421118 93.514277 
L 221.504916 93.472648 
L 222.049605 93.361638 
L 222.101979 93.313071 
L 222.611752 93.202061 
L 222.719991 93.16737 
L 223.100575 93.05636 
L 223.17739 92.993916 
L 223.449734 92.882906 
L 223.547499 92.813525 
L 223.781436 92.702515 
L 223.844284 92.653948 
L 224.371515 92.542938 
L 224.371515 92.536 
L 224.944136 92.424989 
L 225.034918 92.383361 
L 225.425976 92.27235 
L 225.523741 92.168278 
L 225.851951 92.057268 
L 225.96019 92.036454 
L 226.368707 91.925444 
L 226.476946 91.890753 
L 226.94482 91.779743 
L 227.067025 91.710362 
L 227.419676 91.599351 
L 227.479033 91.571599 
L 227.527916 91.571599 
L 227.88755 91.460589 
L 227.957382 91.432836 
L 227.964365 91.432836 
L 228.6976 91.321826 
L 228.798856 91.287135 
L 228.805839 91.287135 
L 229.085167 91.183063 
L 229.148015 91.141434 
L 229.647313 91.037362 
L 229.755553 90.988795 
L 230.090746 90.877785 
L 230.192002 90.843095 
L 230.747165 90.732084 
L 230.841438 90.683518 
L 230.848422 90.683518 
L 231.256938 90.572507 
L 231.298837 90.551693 
L 231.731795 90.440683 
L 231.836543 90.37824 
L 232.154278 90.267229 
L 232.154278 90.260291 
L 232.262517 90.260291 
L 232.646592 90.149281 
L 232.740865 90.11459 
L 233.201756 90.00358 
L 233.236672 89.975828 
L 233.690579 89.864818 
L 233.774377 89.816251 
L 234.154961 89.705241 
L 234.259709 89.691364 
L 234.594902 89.587292 
L 234.671717 89.510973 
L 235.171015 89.399963 
L 235.268779 89.358334 
L 235.70872 89.254262 
L 235.813468 89.177942 
L 236.312766 89.066932 
L 236.403547 89.046118 
L 236.941253 88.935108 
L 237.039018 88.879602 
L 237.245022 88.768592 
L 237.346278 88.720025 
L 237.768761 88.609015 
L 237.856051 88.581263 
L 238.355348 88.470252 
L 238.456605 88.400871 
L 238.742915 88.289861 
L 238.84068 88.241294 
L 239.182856 88.130284 
L 239.287604 88.067841 
L 239.594864 87.956831 
L 239.664696 87.936016 
L 240.02433 87.825006 
L 240.097654 87.776439 
L 240.698208 87.665429 
L 240.743599 87.616862 
L 240.757565 87.616862 
L 241.263846 87.505852 
L 241.365102 87.471161 
L 241.640938 87.360151 
L 241.745686 87.32546 
L 242.196102 87.221388 
L 242.224034 87.193636 
L 242.30085 87.193636 
L 242.709366 87.082626 
L 242.803639 87.040997 
L 243.432126 86.929987 
L 243.536874 86.853667 
L 244.03268 86.742657 
L 244.133936 86.701028 
L 244.636726 86.590018 
L 244.730999 86.548389 
L 244.741474 86.548389 
L 245.226805 86.437379 
L 245.272196 86.423503 
L 245.310603 86.423503 
L 245.722612 86.312493 
L 245.795935 86.291678 
L 245.80641 86.291678 
L 246.295233 86.180668 
L 246.372048 86.159854 
L 246.780565 86.048843 
L 246.83643 86.021091 
L 246.874838 86.021091 
L 247.353186 85.910081 
L 247.430001 85.868452 
L 247.86645 85.757442 
L 247.957232 85.708875 
L 248.320357 85.597865 
L 248.421614 85.570112 
L 248.718399 85.459102 
L 248.791723 85.424411 
L 249.147865 85.313401 
L 249.24563 85.285649 
L 249.556382 85.174638 
L 249.556382 85.1677 
L 250.045205 85.05669 
L 250.10107 85.021999 
L 250.153444 85.021999 
L 250.862238 84.910989 
L 250.928578 84.86936 
L 251.281229 84.75835 
L 251.368519 84.695907 
L 251.375502 84.695907 
L 251.916699 84.584897 
L 252.024939 84.557144 
L 252.440438 84.446134 
L 252.524236 84.418382 
L 252.810547 84.307372 
L 252.908312 84.258805 
L 253.309845 84.147794 
L 253.414593 84.12698 
L 253.679954 84.01597 
L 253.770735 83.988217 
L 254.050063 83.877207 
L 254.119895 83.849455 
L 254.140844 83.849455 
L 254.573802 83.738444 
L 254.67855 83.710692 
L 255.163881 83.599682 
L 255.219747 83.5303 
L 255.265138 83.5303 
L 255.62128 83.426228 
L 255.726028 83.377661 
L 256.235801 83.266651 
L 256.337057 83.211146 
L 256.770015 83.100136 
L 256.818897 83.079322 
L 256.853813 83.079322 
L 257.248363 82.968311 
L 257.311212 82.947497 
L 257.356602 82.947497 
L 257.869867 82.836487 
L 257.967631 82.822611 
L 258.299333 82.718539 
L 258.393606 82.683848 
L 258.543744 82.579776 
L 258.59961 82.531209 
L 259.172231 82.420199 
L 259.256029 82.37857 
L 259.280471 82.37857 
L 259.647088 82.26756 
L 259.692479 82.246745 
L 259.720411 82.246745 
L 260.237167 82.135735 
L 260.327949 82.101045 
L 260.914537 81.996973 
L 260.963419 81.948406 
L 261.284646 81.837395 
L 261.288137 81.823519 
L 261.927099 81.719447 
L 262.024863 81.657004 
L 262.381006 81.545994 
L 262.464804 81.469674 
L 262.859354 81.358664 
L 262.957119 81.33785 
L 262.967594 81.33785 
L 263.57164 81.212963 
L 264.091887 81.101953 
L 264.196635 81.060324 
L 264.674983 80.949314 
L 264.758781 80.921562 
L 265.121907 80.81749 
L 265.230147 80.796675 
L 265.691037 80.685665 
L 265.795785 80.644036 
L 266.029722 80.539964 
L 266.127486 80.470583 
L 266.134469 80.470583 
L 266.686141 80.359573 
L 266.766448 80.324882 
L 267.206389 80.213872 
L 267.262254 80.193057 
L 267.53809 80.082047 
L 267.64633 80.03348 
L 268.096745 79.92247 
L 268.131661 79.908594 
L 268.166577 79.908594 
L 268.585568 79.797584 
L 268.686825 79.728202 
L 269.13724 79.617192 
L 269.175648 79.596378 
L 269.70637 79.492306 
L 269.741286 79.450677 
L 270.223126 79.346605 
L 270.320891 79.311914 
L 270.711949 79.200904 
L 270.813205 79.159275 
L 271.197281 79.048265 
L 271.295045 78.985822 
L 271.668646 78.88175 
L 271.752444 78.833183 
L 272.066687 78.729111 
L 272.126045 78.701358 
L 272.433305 78.590348 
L 272.534561 78.555658 
L 273.047825 78.444647 
L 273.131624 78.416895 
L 273.156065 78.416895 
L 273.557598 78.305885 
L 273.616955 78.271194 
L 274.193068 78.160184 
L 274.276866 78.125493 
L 274.852979 78.014483 
L 274.943761 77.993669 
L 275.188172 77.882659 
L 275.285937 77.84103 
L 275.984256 77.73002 
L 276.03663 77.695329 
L 276.483554 77.584319 
L 276.58481 77.570442 
L 277.115532 77.459432 
L 277.185364 77.417804 
L 277.216788 77.417804 
L 277.796393 77.306793 
L 277.873208 77.279041 
L 278.662308 77.168031 
L 278.749598 77.140278 
L 279.224455 77.029268 
L 279.308253 76.994577 
L 279.807551 76.883567 
L 279.912299 76.821124 
L 280.715366 76.710114 
L 280.760756 76.661547 
L 280.823605 76.661547 
L 281.088966 76.557475 
L 281.088966 76.550537 
L 281.232121 76.515846 
L 281.752369 76.404836 
L 281.815218 76.363207 
L 282.52052 76.252197 
L 282.590351 76.231382 
L 283.348027 76.120372 
L 283.438809 76.099558 
L 284.248859 75.988548 
L 284.353606 75.974671 
L 285.027484 75.863661 
L 285.027484 75.856723 
L 285.701362 75.745713 
L 285.795635 75.724899 
L 286.497445 75.613888 
L 286.542836 75.593074 
L 286.59521 75.593074 
L 287.227188 75.489002 
L 287.342411 75.461249 
L 287.918524 75.350239 
L 288.026763 75.329425 
L 288.630809 75.218415 
L 288.732065 75.1976 
L 289.503707 75.08659 
L 289.549098 75.072714 
L 290.345182 74.961704 
L 290.425488 74.933951 
L 291.266962 74.822941 
L 291.287912 74.809065 
L 291.37171 74.809065 
L 292.262067 74.698055 
L 292.366814 74.663364 
L 293.100049 74.552354 
L 293.100049 74.545416 
L 293.107032 74.545416 
L 294.238309 74.434405 
L 294.32909 74.413591 
L 294.343057 74.413591 
L 295.132157 74.302581 
L 295.233413 74.288705 
L 296.448488 74.177694 
L 296.49737 74.163818 
L 297.363285 74.052808 
L 297.363285 74.04587 
L 297.450575 74.04587 
L 298.536461 73.93486 
L 298.623751 73.920983 
L 300.100695 73.809973 
L 300.285749 73.782221 
L 301.68937 73.671211 
L 301.731269 73.643458 
L 303.103466 73.532448 
L 303.187264 73.518572 
L 304.363931 73.407561 
L 304.374406 73.393685 
L 305.613922 73.282675 
L 305.63138 73.261861 
L 307.433042 73.15085 
L 307.433042 73.143912 
L 307.464466 73.143912 
L 308.627167 73.032902 
L 308.728423 73.012088 
L 308.735407 73.012088 
L 310.034279 72.901078 
L 310.034279 72.89414 
L 311.898791 72.790067 
L 311.975606 72.769253 
L 313.284953 72.658243 
L 313.312886 72.644367 
L 313.382718 72.644367 
L 315.610355 72.533356 
L 315.631304 72.51948 
L 315.673204 72.51948 
L 317.904332 72.40847 
L 317.904332 72.401532 
L 317.928773 72.401532 
L 320.474145 72.290522 
L 320.474145 72.283584 
L 320.519536 72.283584 
L 322.74019 72.172573 
L 322.830971 72.144821 
L 325.26112 72.033811 
L 325.271595 72.019935 
L 325.358885 72.019935 
L 327.67032 71.908924 
L 327.708728 71.895048 
L 330.083012 71.784038 
L 330.083012 71.7771 
L 330.124911 71.7771 
L 334.224042 71.66609 
L 334.224042 71.659151 
L 334.293874 71.659151 
L 336.472628 71.548141 
L 336.472628 71.541203 
L 341.758902 71.430193 
L 341.867141 71.40244 
L 347.443216 71.29143 
L 347.443216 71.284492 
L 347.478132 71.284492 
L 351.367768 71.173482 
L 351.406176 71.159606 
L 356.661024 71.048596 
L 356.706415 71.027781 
L 361.681936 70.916771 
L 361.681936 70.909833 
L 361.790176 70.909833 
L 365.847408 70.798823 
L 365.847408 70.791885 
L 370.508686 70.680874 
L 370.557568 70.653122 
L 370.60645 70.653122 
L 377.191596 70.542112 
L 377.191596 70.535174 
L 384.377297 70.424163 
L 384.377297 70.417225 
L 384.482044 70.417225 
L 390.896102 70.306215 
L 390.903086 70.292339 
L 390.95546 70.292339 
L 396.76198 70.181329 
L 396.803879 70.160514 
L 405.941381 70.049504 
L 406.039145 70.035628 
L 417.044649 69.924618 
L 417.170347 69.91768 
L 433.472598 69.806669 
L 433.472598 69.799731 
L 444.219724 69.688721 
L 444.219724 69.681783 
L 444.327964 69.681783 
L 464.785212 69.570773 
L 464.785212 69.563835 
L 503.105455 69.452825 
L 503.105455 69.445886 
L 503.161321 69.445886 
L 581.603469 69.334876 
L 581.603469 69.327938 
L 581.690759 69.327938 
L 611.865114 69.321 
L 611.865114 69.321 
" clip-path="url(#pd370e65b6e)" style="fill: none; stroke: #ff8c00; stroke-width: 3; stroke-linecap: round"/>
   </g>
   <g id="patch_3">
    <path d="M 79.22875 333.921 
L 79.22875 56.721 
" style="fill: none; stroke: #cccccc; stroke-width: 2.5; stroke-linejoin: miter; stroke-linecap: square"/>
   </g>
   <g id="patch_4">
    <path d="M 637.22875 333.921 
L 637.22875 56.721 
" style="fill: none; stroke: #cccccc; stroke-width: 2.5; stroke-linejoin: miter; stroke-linecap: square"/>
   </g>
   <g id="patch_5">
    <path d="M 79.22875 333.921 
L 637.22875 333.921 
" style="fill: none; stroke: #cccccc; stroke-width: 2.5; stroke-linejoin: miter; stroke-linecap: square"/>
   </g>
   <g id="patch_6">
    <path d="M 79.22875 56.721 
L 637.22875 56.721 
" style="fill: none; stroke: #cccccc; stroke-width: 2.5; stroke-linejoin: miter; stroke-linecap: square"/>
   </g>
   <g id="text_15">
    <!-- Micro-averaged One-vs-Rest -->
    <g style="fill: #262626" transform="translate(204.19 24.68625)scale(0.24 -0.24)">
     <defs>
      <path id="ArialMT-4d" d="M 475 0 
L 475 4581 
L 1388 4581 
L 2472 1338 
Q 2622 884 2691 659 
Q 2769 909 2934 1394 
L 4031 4581 
L 4847 4581 
L 4847 0 
L 4263 0 
L 4263 3834 
L 2931 0 
L 2384 0 
L 1059 3900 
L 1059 0 
L 475 0 
z
" transform="scale(0.015625)"/>
      <path id="ArialMT-63" d="M 2588 1216 
L 3141 1144 
Q 3050 572 2676 248 
Q 2303 -75 1759 -75 
Q 1078 -75 664 370 
Q 250 816 250 1647 
Q 250 2184 428 2587 
Q 606 2991 970 3192 
Q 1334 3394 1763 3394 
Q 2303 3394 2647 3120 
Q 2991 2847 3088 2344 
L 2541 2259 
Q 2463 2594 2264 2762 
Q 2066 2931 1784 2931 
Q 1359 2931 1093 2626 
Q 828 2322 828 1663 
Q 828 994 1084 691 
Q 1341 388 1753 388 
Q 2084 388 2306 591 
Q 2528 794 2588 1216 
z
" transform="scale(0.015625)"/>
      <path id="ArialMT-2d" d="M 203 1375 
L 203 1941 
L 1931 1941 
L 1931 1375 
L 203 1375 
z
" transform="scale(0.015625)"/>
      <path id="ArialMT-67" d="M 319 -275 
L 866 -356 
Q 900 -609 1056 -725 
Q 1266 -881 1628 -881 
Q 2019 -881 2231 -725 
Q 2444 -569 2519 -288 
Q 2563 -116 2559 434 
Q 2191 0 1641 0 
Q 956 0 581 494 
Q 206 988 206 1678 
Q 206 2153 378 2554 
Q 550 2956 876 3175 
Q 1203 3394 1644 3394 
Q 2231 3394 2613 2919 
L 2613 3319 
L 3131 3319 
L 3131 450 
Q 3131 -325 2973 -648 
Q 2816 -972 2473 -1159 
Q 2131 -1347 1631 -1347 
Q 1038 -1347 672 -1080 
Q 306 -813 319 -275 
z
M 784 1719 
Q 784 1066 1043 766 
Q 1303 466 1694 466 
Q 2081 466 2343 764 
Q 2606 1063 2606 1700 
Q 2606 2309 2336 2618 
Q 2066 2928 1684 2928 
Q 1309 2928 1046 2623 
Q 784 2319 784 1719 
z
" transform="scale(0.015625)"/>
      <path id="ArialMT-64" d="M 2575 0 
L 2575 419 
Q 2259 -75 1647 -75 
Q 1250 -75 917 144 
Q 584 363 401 755 
Q 219 1147 219 1656 
Q 219 2153 384 2558 
Q 550 2963 881 3178 
Q 1213 3394 1622 3394 
Q 1922 3394 2156 3267 
Q 2391 3141 2538 2938 
L 2538 4581 
L 3097 4581 
L 3097 0 
L 2575 0 
z
M 797 1656 
Q 797 1019 1065 703 
Q 1334 388 1700 388 
Q 2069 388 2326 689 
Q 2584 991 2584 1609 
Q 2584 2291 2321 2609 
Q 2059 2928 1675 2928 
Q 1300 2928 1048 2622 
Q 797 2316 797 1656 
z
" transform="scale(0.015625)"/>
      <path id="ArialMT-4f" d="M 309 2231 
Q 309 3372 921 4017 
Q 1534 4663 2503 4663 
Q 3138 4663 3647 4359 
Q 4156 4056 4423 3514 
Q 4691 2972 4691 2284 
Q 4691 1588 4409 1038 
Q 4128 488 3612 205 
Q 3097 -78 2500 -78 
Q 1853 -78 1343 234 
Q 834 547 571 1087 
Q 309 1628 309 2231 
z
M 934 2222 
Q 934 1394 1379 917 
Q 1825 441 2497 441 
Q 3181 441 3623 922 
Q 4066 1403 4066 2288 
Q 4066 2847 3877 3264 
Q 3688 3681 3323 3911 
Q 2959 4141 2506 4141 
Q 1863 4141 1398 3698 
Q 934 3256 934 2222 
z
" transform="scale(0.015625)"/>
      <path id="ArialMT-6e" d="M 422 0 
L 422 3319 
L 928 3319 
L 928 2847 
Q 1294 3394 1984 3394 
Q 2284 3394 2536 3286 
Q 2788 3178 2913 3003 
Q 3038 2828 3088 2588 
Q 3119 2431 3119 2041 
L 3119 0 
L 2556 0 
L 2556 2019 
Q 2556 2363 2490 2533 
Q 2425 2703 2258 2804 
Q 2091 2906 1866 2906 
Q 1506 2906 1245 2678 
Q 984 2450 984 1813 
L 984 0 
L 422 0 
z
" transform="scale(0.015625)"/>
     </defs>
     <use xlink:href="#ArialMT-4d"/>
     <use xlink:href="#ArialMT-69" x="83.300781"/>
     <use xlink:href="#ArialMT-63" x="105.517578"/>
     <use xlink:href="#ArialMT-72" x="155.517578"/>
     <use xlink:href="#ArialMT-6f" x="188.818359"/>
     <use xlink:href="#ArialMT-2d" x="244.433594"/>
     <use xlink:href="#ArialMT-61" x="277.734375"/>
     <use xlink:href="#ArialMT-76" x="333.349609"/>
     <use xlink:href="#ArialMT-65" x="383.349609"/>
     <use xlink:href="#ArialMT-72" x="438.964844"/>
     <use xlink:href="#ArialMT-61" x="472.265625"/>
     <use xlink:href="#ArialMT-67" x="527.880859"/>
     <use xlink:href="#ArialMT-65" x="583.496094"/>
     <use xlink:href="#ArialMT-64" x="639.111328"/>
     <use xlink:href="#ArialMT-20" x="694.726562"/>
     <use xlink:href="#ArialMT-4f" x="722.509766"/>
     <use xlink:href="#ArialMT-6e" x="800.292969"/>
     <use xlink:href="#ArialMT-65" x="855.908203"/>
     <use xlink:href="#ArialMT-2d" x="911.523438"/>
     <use xlink:href="#ArialMT-76" x="944.824219"/>
     <use xlink:href="#ArialMT-73" x="994.824219"/>
     <use xlink:href="#ArialMT-2d" x="1044.824219"/>
     <use xlink:href="#ArialMT-52" x="1078.125"/>
     <use xlink:href="#ArialMT-65" x="1150.341797"/>
     <use xlink:href="#ArialMT-73" x="1205.957031"/>
     <use xlink:href="#ArialMT-74" x="1255.957031"/>
    </g>
    <!-- Receiver Operating Characteristic -->
    <g style="fill: #262626" transform="translate(178.16875 50.721)scale(0.24 -0.24)">
     <defs>
      <path id="ArialMT-70" d="M 422 -1272 
L 422 3319 
L 934 3319 
L 934 2888 
Q 1116 3141 1344 3267 
Q 1572 3394 1897 3394 
Q 2322 3394 2647 3175 
Q 2972 2956 3137 2557 
Q 3303 2159 3303 1684 
Q 3303 1175 3120 767 
Q 2938 359 2589 142 
Q 2241 -75 1856 -75 
Q 1575 -75 1351 44 
Q 1128 163 984 344 
L 984 -1272 
L 422 -1272 
z
M 931 1641 
Q 931 1000 1190 694 
Q 1450 388 1819 388 
Q 2194 388 2461 705 
Q 2728 1022 2728 1688 
Q 2728 2322 2467 2637 
Q 2206 2953 1844 2953 
Q 1484 2953 1207 2617 
Q 931 2281 931 1641 
z
" transform="scale(0.015625)"/>
      <path id="ArialMT-43" d="M 3763 1606 
L 4369 1453 
Q 4178 706 3683 314 
Q 3188 -78 2472 -78 
Q 1731 -78 1267 223 
Q 803 525 561 1097 
Q 319 1669 319 2325 
Q 319 3041 592 3573 
Q 866 4106 1370 4382 
Q 1875 4659 2481 4659 
Q 3169 4659 3637 4309 
Q 4106 3959 4291 3325 
L 3694 3184 
Q 3534 3684 3231 3912 
Q 2928 4141 2469 4141 
Q 1941 4141 1586 3887 
Q 1231 3634 1087 3207 
Q 944 2781 944 2328 
Q 944 1744 1114 1308 
Q 1284 872 1643 656 
Q 2003 441 2422 441 
Q 2931 441 3284 734 
Q 3638 1028 3763 1606 
z
" transform="scale(0.015625)"/>
      <path id="ArialMT-68" d="M 422 0 
L 422 4581 
L 984 4581 
L 984 2938 
Q 1378 3394 1978 3394 
Q 2347 3394 2619 3248 
Q 2891 3103 3008 2847 
Q 3125 2591 3125 2103 
L 3125 0 
L 2563 0 
L 2563 2103 
Q 2563 2525 2380 2717 
Q 2197 2909 1863 2909 
Q 1613 2909 1392 2779 
Q 1172 2650 1078 2428 
Q 984 2206 984 1816 
L 984 0 
L 422 0 
z
" transform="scale(0.015625)"/>
     </defs>
     <use xlink:href="#ArialMT-52"/>
     <use xlink:href="#ArialMT-65" x="72.216797"/>
     <use xlink:href="#ArialMT-63" x="127.832031"/>
     <use xlink:href="#ArialMT-65" x="177.832031"/>
     <use xlink:href="#ArialMT-69" x="233.447266"/>
     <use xlink:href="#ArialMT-76" x="255.664062"/>
     <use xlink:href="#ArialMT-65" x="305.664062"/>
     <use xlink:href="#ArialMT-72" x="361.279297"/>
     <use xlink:href="#ArialMT-20" x="394.580078"/>
     <use xlink:href="#ArialMT-4f" x="422.363281"/>
     <use xlink:href="#ArialMT-70" x="500.146484"/>
     <use xlink:href="#ArialMT-65" x="555.761719"/>
     <use xlink:href="#ArialMT-72" x="611.376953"/>
     <use xlink:href="#ArialMT-61" x="644.677734"/>
     <use xlink:href="#ArialMT-74" x="700.292969"/>
     <use xlink:href="#ArialMT-69" x="728.076172"/>
     <use xlink:href="#ArialMT-6e" x="750.292969"/>
     <use xlink:href="#ArialMT-67" x="805.908203"/>
     <use xlink:href="#ArialMT-20" x="861.523438"/>
     <use xlink:href="#ArialMT-43" x="889.306641"/>
     <use xlink:href="#ArialMT-68" x="961.523438"/>
     <use xlink:href="#ArialMT-61" x="1017.138672"/>
     <use xlink:href="#ArialMT-72" x="1072.753906"/>
     <use xlink:href="#ArialMT-61" x="1106.054688"/>
     <use xlink:href="#ArialMT-63" x="1161.669922"/>
     <use xlink:href="#ArialMT-74" x="1211.669922"/>
     <use xlink:href="#ArialMT-65" x="1239.453125"/>
     <use xlink:href="#ArialMT-72" x="1295.068359"/>
     <use xlink:href="#ArialMT-69" x="1328.369141"/>
     <use xlink:href="#ArialMT-73" x="1350.585938"/>
     <use xlink:href="#ArialMT-74" x="1400.585938"/>
     <use xlink:href="#ArialMT-69" x="1428.369141"/>
     <use xlink:href="#ArialMT-63" x="1450.585938"/>
    </g>
   </g>
   <g id="legend_1">
    <g id="patch_7">
     <path d="M 225.6225 322.921 
L 621.82875 322.921 
Q 626.22875 322.921 626.22875 318.521 
L 626.22875 289.061625 
Q 626.22875 284.661625 621.82875 284.661625 
L 225.6225 284.661625 
Q 221.2225 284.661625 221.2225 289.061625 
L 221.2225 318.521 
Q 221.2225 322.921 225.6225 322.921 
z
" style="fill: #ffffff; opacity: 0.8; stroke: #cccccc; stroke-width: 2; stroke-linejoin: miter"/>
    </g>
    <g id="line2d_14">
     <path d="M 230.0225 301.790688 
L 252.0225 301.790688 
L 274.0225 301.790688 
" style="fill: none; stroke: #ff8c00; stroke-width: 3; stroke-linecap: round"/>
    </g>
    <g id="text_16">
     <!-- micro-average OvR (AUC = 0.93) -->
     <g style="fill: #262626" transform="translate(291.6225 309.490688)scale(0.22 -0.22)">
      <defs>
       <path id="ArialMT-6d" d="M 422 0 
L 422 3319 
L 925 3319 
L 925 2853 
Q 1081 3097 1340 3245 
Q 1600 3394 1931 3394 
Q 2300 3394 2536 3241 
Q 2772 3088 2869 2813 
Q 3263 3394 3894 3394 
Q 4388 3394 4653 3120 
Q 4919 2847 4919 2278 
L 4919 0 
L 4359 0 
L 4359 2091 
Q 4359 2428 4304 2576 
Q 4250 2725 4106 2815 
Q 3963 2906 3769 2906 
Q 3419 2906 3187 2673 
Q 2956 2441 2956 1928 
L 2956 0 
L 2394 0 
L 2394 2156 
Q 2394 2531 2256 2718 
Q 2119 2906 1806 2906 
Q 1569 2906 1367 2781 
Q 1166 2656 1075 2415 
Q 984 2175 984 1722 
L 984 0 
L 422 0 
z
" transform="scale(0.015625)"/>
       <path id="ArialMT-28" d="M 1497 -1347 
Q 1031 -759 709 28 
Q 388 816 388 1659 
Q 388 2403 628 3084 
Q 909 3875 1497 4659 
L 1900 4659 
Q 1522 4009 1400 3731 
Q 1209 3300 1100 2831 
Q 966 2247 966 1656 
Q 966 153 1900 -1347 
L 1497 -1347 
z
" transform="scale(0.015625)"/>
       <path id="ArialMT-41" d="M -9 0 
L 1750 4581 
L 2403 4581 
L 4278 0 
L 3588 0 
L 3053 1388 
L 1138 1388 
L 634 0 
L -9 0 
z
M 1313 1881 
L 2866 1881 
L 2388 3150 
Q 2169 3728 2063 4100 
Q 1975 3659 1816 3225 
L 1313 1881 
z
" transform="scale(0.015625)"/>
       <path id="ArialMT-55" d="M 3500 4581 
L 4106 4581 
L 4106 1934 
Q 4106 1244 3950 837 
Q 3794 431 3386 176 
Q 2978 -78 2316 -78 
Q 1672 -78 1262 144 
Q 853 366 678 786 
Q 503 1206 503 1934 
L 503 4581 
L 1109 4581 
L 1109 1938 
Q 1109 1341 1220 1058 
Q 1331 775 1601 622 
Q 1872 469 2263 469 
Q 2931 469 3215 772 
Q 3500 1075 3500 1938 
L 3500 4581 
z
" transform="scale(0.015625)"/>
       <path id="ArialMT-3d" d="M 3381 2694 
L 356 2694 
L 356 3219 
L 3381 3219 
L 3381 2694 
z
M 3381 1303 
L 356 1303 
L 356 1828 
L 3381 1828 
L 3381 1303 
z
" transform="scale(0.015625)"/>
       <path id="ArialMT-39" d="M 350 1059 
L 891 1109 
Q 959 728 1153 556 
Q 1347 384 1650 384 
Q 1909 384 2104 503 
Q 2300 622 2425 820 
Q 2550 1019 2634 1356 
Q 2719 1694 2719 2044 
Q 2719 2081 2716 2156 
Q 2547 1888 2255 1720 
Q 1963 1553 1622 1553 
Q 1053 1553 659 1965 
Q 266 2378 266 3053 
Q 266 3750 677 4175 
Q 1088 4600 1706 4600 
Q 2153 4600 2523 4359 
Q 2894 4119 3086 3673 
Q 3278 3228 3278 2384 
Q 3278 1506 3087 986 
Q 2897 466 2520 194 
Q 2144 -78 1638 -78 
Q 1100 -78 759 220 
Q 419 519 350 1059 
z
M 2653 3081 
Q 2653 3566 2395 3850 
Q 2138 4134 1775 4134 
Q 1400 4134 1122 3828 
Q 844 3522 844 3034 
Q 844 2597 1108 2323 
Q 1372 2050 1759 2050 
Q 2150 2050 2401 2323 
Q 2653 2597 2653 3081 
z
" transform="scale(0.015625)"/>
       <path id="ArialMT-33" d="M 269 1209 
L 831 1284 
Q 928 806 1161 595 
Q 1394 384 1728 384 
Q 2125 384 2398 659 
Q 2672 934 2672 1341 
Q 2672 1728 2419 1979 
Q 2166 2231 1775 2231 
Q 1616 2231 1378 2169 
L 1441 2663 
Q 1497 2656 1531 2656 
Q 1891 2656 2178 2843 
Q 2466 3031 2466 3422 
Q 2466 3731 2256 3934 
Q 2047 4138 1716 4138 
Q 1388 4138 1169 3931 
Q 950 3725 888 3313 
L 325 3413 
Q 428 3978 793 4289 
Q 1159 4600 1703 4600 
Q 2078 4600 2393 4439 
Q 2709 4278 2876 4000 
Q 3044 3722 3044 3409 
Q 3044 3113 2884 2869 
Q 2725 2625 2413 2481 
Q 2819 2388 3044 2092 
Q 3269 1797 3269 1353 
Q 3269 753 2831 336 
Q 2394 -81 1725 -81 
Q 1122 -81 723 278 
Q 325 638 269 1209 
z
" transform="scale(0.015625)"/>
       <path id="ArialMT-29" d="M 791 -1347 
L 388 -1347 
Q 1322 153 1322 1656 
Q 1322 2244 1188 2822 
Q 1081 3291 891 3722 
Q 769 4003 388 4659 
L 791 4659 
Q 1378 3875 1659 3084 
Q 1900 2403 1900 1659 
Q 1900 816 1576 28 
Q 1253 -759 791 -1347 
z
" transform="scale(0.015625)"/>
      </defs>
      <use xlink:href="#ArialMT-6d"/>
      <use xlink:href="#ArialMT-69" x="83.300781"/>
      <use xlink:href="#ArialMT-63" x="105.517578"/>
      <use xlink:href="#ArialMT-72" x="155.517578"/>
      <use xlink:href="#ArialMT-6f" x="188.818359"/>
      <use xlink:href="#ArialMT-2d" x="244.433594"/>
      <use xlink:href="#ArialMT-61" x="277.734375"/>
      <use xlink:href="#ArialMT-76" x="333.349609"/>
      <use xlink:href="#ArialMT-65" x="383.349609"/>
      <use xlink:href="#ArialMT-72" x="438.964844"/>
      <use xlink:href="#ArialMT-61" x="472.265625"/>
      <use xlink:href="#ArialMT-67" x="527.880859"/>
      <use xlink:href="#ArialMT-65" x="583.496094"/>
      <use xlink:href="#ArialMT-20" x="639.111328"/>
      <use xlink:href="#ArialMT-4f" x="666.894531"/>
      <use xlink:href="#ArialMT-76" x="744.677734"/>
      <use xlink:href="#ArialMT-52" x="794.677734"/>
      <use xlink:href="#ArialMT-20" x="866.894531"/>
      <use xlink:href="#ArialMT-28" x="894.677734"/>
      <use xlink:href="#ArialMT-41" x="927.978516"/>
      <use xlink:href="#ArialMT-55" x="994.677734"/>
      <use xlink:href="#ArialMT-43" x="1066.894531"/>
      <use xlink:href="#ArialMT-20" x="1139.111328"/>
      <use xlink:href="#ArialMT-3d" x="1166.894531"/>
      <use xlink:href="#ArialMT-20" x="1225.292969"/>
      <use xlink:href="#ArialMT-30" x="1253.076172"/>
      <use xlink:href="#ArialMT-2e" x="1308.691406"/>
      <use xlink:href="#ArialMT-39" x="1336.474609"/>
      <use xlink:href="#ArialMT-33" x="1392.089844"/>
      <use xlink:href="#ArialMT-29" x="1447.705078"/>
     </g>
    </g>
   </g>
  </g>
 </g>
 <defs>
  <clipPath id="pd370e65b6e">
   <rect x="79.22875" y="56.721" width="558" height="277.2"/>
  </clipPath>
 </defs>
</svg>
